<mxfile host="65bd71144e">
    <diagram id="yfwArTmX9UKwla5G4DGi" name="Page-1">
        <mxGraphModel dx="790" dy="495" grid="0" gridSize="10" guides="1" tooltips="1" connect="1" arrows="1" fold="1" page="1" pageScale="1" pageWidth="827" pageHeight="1169" math="0" shadow="0">
            <root>
                <mxCell id="0"/>
                <mxCell id="1" parent="0"/>
                <mxCell id="4" value="" style="edgeStyle=none;html=1;" parent="1" source="2" target="3" edge="1">
                    <mxGeometry relative="1" as="geometry"/>
                </mxCell>
                <mxCell id="2" value="НАЧАЛО" style="ellipse;whiteSpace=wrap;html=1;" parent="1" vertex="1">
                    <mxGeometry x="200" y="30" width="120" height="50" as="geometry"/>
                </mxCell>
                <mxCell id="6" value="" style="edgeStyle=none;html=1;fontSize=12;entryX=0.5;entryY=0;entryDx=0;entryDy=0;" parent="1" source="3" target="22" edge="1">
                    <mxGeometry relative="1" as="geometry">
                        <mxPoint x="424" y="266" as="targetPoint"/>
                        <Array as="points">
                            <mxPoint x="265" y="213"/>
                        </Array>
                    </mxGeometry>
                </mxCell>
                <mxCell id="3" value="arrayInput&lt;br&gt;len = Size(arrayInput)&lt;br&gt;index = 0&lt;br&gt;lengthFindElements = 3&lt;br&gt;newArray = [ none ]&lt;br&gt;newIndex = 0" style="whiteSpace=wrap;html=1;" parent="1" vertex="1">
                    <mxGeometry x="150" y="110" width="229" height="105" as="geometry"/>
                </mxCell>
                <mxCell id="8" value="" style="edgeStyle=none;html=1;fontSize=12;" parent="1" source="5" target="7" edge="1">
                    <mxGeometry relative="1" as="geometry"/>
                </mxCell>
                <mxCell id="13" value="&amp;nbsp;&lt;br&gt;true&amp;nbsp;&lt;br&gt;" style="edgeLabel;html=1;align=center;verticalAlign=middle;resizable=0;points=[];fontSize=12;" parent="8" vertex="1" connectable="0">
                    <mxGeometry x="-0.5368" y="-4" relative="1" as="geometry">
                        <mxPoint x="4" y="8" as="offset"/>
                    </mxGeometry>
                </mxCell>
                <mxCell id="5" value="length(array[index]) &amp;lt;= lengthFindElements?" style="rhombus;whiteSpace=wrap;html=1;" parent="1" vertex="1">
                    <mxGeometry x="108" y="337" width="317" height="80" as="geometry"/>
                </mxCell>
                <mxCell id="12" value="" style="edgeStyle=none;html=1;fontSize=12;exitX=0;exitY=0.5;exitDx=0;exitDy=0;" parent="1" source="7" edge="1">
                    <mxGeometry relative="1" as="geometry">
                        <mxPoint x="196" y="268" as="targetPoint"/>
                        <Array as="points">
                            <mxPoint x="62" y="504"/>
                            <mxPoint x="62" y="268"/>
                        </Array>
                    </mxGeometry>
                </mxCell>
                <mxCell id="7" value="sizeNewArray = newIndex + 1&lt;br&gt;newArray[newIndex&amp;nbsp;] = array[index]&lt;br&gt;newIndex&amp;nbsp;+= 1" style="whiteSpace=wrap;html=1;" parent="1" vertex="1">
                    <mxGeometry x="156.5" y="471" width="220" height="65" as="geometry"/>
                </mxCell>
                <mxCell id="21" value="" style="edgeStyle=none;html=1;fontSize=12;" parent="1" source="19" target="20" edge="1">
                    <mxGeometry relative="1" as="geometry"/>
                </mxCell>
                <mxCell id="19" value="&lt;span&gt;newArray&lt;/span&gt;" style="shape=document;whiteSpace=wrap;html=1;boundedLbl=1;fontSize=12;" parent="1" vertex="1">
                    <mxGeometry x="526" y="320" width="120" height="80" as="geometry"/>
                </mxCell>
                <mxCell id="20" value="КОНЕЦ" style="ellipse;whiteSpace=wrap;html=1;" parent="1" vertex="1">
                    <mxGeometry x="523" y="488" width="120" height="60" as="geometry"/>
                </mxCell>
                <mxCell id="22" value="index = 0&lt;br&gt;index &amp;lt; len&lt;br&gt;index += 1" style="shape=hexagon;perimeter=hexagonPerimeter2;whiteSpace=wrap;html=1;fixedSize=1;" parent="1" vertex="1">
                    <mxGeometry x="198" y="243" width="133" height="54" as="geometry"/>
                </mxCell>
                <mxCell id="32" value="" style="edgeStyle=none;html=1;fontSize=12;exitX=1;exitY=0.5;exitDx=0;exitDy=0;" parent="1" source="5" edge="1">
                    <mxGeometry relative="1" as="geometry">
                        <mxPoint x="62" y="481" as="targetPoint"/>
                        <Array as="points">
                            <mxPoint x="487" y="377"/>
                            <mxPoint x="487" y="567"/>
                            <mxPoint x="62" y="567"/>
                        </Array>
                        <mxPoint x="166.5" y="503" as="sourcePoint"/>
                    </mxGeometry>
                </mxCell>
                <mxCell id="33" value="" style="endArrow=classic;html=1;entryX=0.5;entryY=0;entryDx=0;entryDy=0;" parent="1" source="22" target="5" edge="1">
                    <mxGeometry width="50" height="50" relative="1" as="geometry">
                        <mxPoint x="156" y="423" as="sourcePoint"/>
                        <mxPoint x="206" y="373" as="targetPoint"/>
                    </mxGeometry>
                </mxCell>
                <mxCell id="34" value="False" style="text;html=1;align=center;verticalAlign=middle;resizable=0;points=[];autosize=1;strokeColor=none;fillColor=none;" parent="1" vertex="1">
                    <mxGeometry x="426" y="364" width="41" height="18" as="geometry"/>
                </mxCell>
                <mxCell id="38" value="" style="edgeStyle=none;html=1;fontSize=12;entryX=0.5;entryY=0;entryDx=0;entryDy=0;" parent="1" target="19" edge="1">
                    <mxGeometry relative="1" as="geometry">
                        <mxPoint x="205.9999999999999" y="278" as="targetPoint"/>
                        <Array as="points">
                            <mxPoint x="586" y="272"/>
                        </Array>
                        <mxPoint x="331" y="272" as="sourcePoint"/>
                    </mxGeometry>
                </mxCell>
            </root>
        </mxGraphModel>
    </diagram>
</mxfile>